# xmcd CD database file
#
# Track frame offsets:
#	150
#	19570
#	40820
#
# Disc length: 800 seconds
#
# Revision: 1
# Processed by: cddbd v1.5.2PL0 Copyright (c) Steve Scherf et al.
# Submitted via: CDex 1.70beta3
#
DISCID=17031e03
DTITLE=MASCHERA - to fly high
DYEAR=1999
DGENRE=Rock
TTITLE0=to fly high
TTITLE1=float
TTITLE2=to fly high [Back Track Version]
EXTD=YEAR: 1999
EXTT0=
EXTT1=
EXTT2=
PLAYORDER=
